<svg xmlns="http://www.w3.org/2000/svg" xmlns:xlink="http://www.w3.org/1999/xlink" width="500" zoomAndPan="magnify" viewBox="0 0 375 374.999991" height="500" preserveAspectRatio="xMidYMid meet" version="1.0"><defs><g/></defs><g fill="#fdfdfd" fill-opacity="1"><g transform="translate(77.919945, 173.831913)"><g><path d="M 3.8125 -86.25 L 27.609375 -86.25 C 33.765625 -86.25 38.382812 -84.539062 41.46875 -81.125 C 44.550781 -77.707031 46.125 -72.65625 46.1875 -65.96875 L 46.390625 -25.609375 C 46.453125 -17.109375 44.976562 -10.710938 41.96875 -6.421875 C 38.957031 -2.140625 33.972656 0 27.015625 0 L 3.8125 0 Z M 24.203125 -15.265625 C 27.347656 -15.265625 28.921875 -16.800781 28.921875 -19.875 L 28.921875 -64.359375 C 28.921875 -66.296875 28.769531 -67.75 28.46875 -68.71875 C 28.164062 -69.695312 27.613281 -70.351562 26.8125 -70.6875 C 26.007812 -71.019531 24.769531 -71.1875 23.09375 -71.1875 L 21.1875 -71.1875 L 21.1875 -15.265625 Z M 24.203125 -15.265625 "/></g></g></g><g fill="#fdfdfd" fill-opacity="1"><g transform="translate(128.722403, 173.831913)"><g><path d="M 3.8125 -86.25 L 30.328125 -86.25 C 34.535156 -86.25 37.796875 -85.296875 40.109375 -83.390625 C 42.421875 -81.484375 43.976562 -78.804688 44.78125 -75.359375 C 45.582031 -71.910156 45.984375 -67.507812 45.984375 -62.15625 C 45.984375 -57.269531 45.347656 -53.453125 44.078125 -50.703125 C 42.804688 -47.960938 40.597656 -46.054688 37.453125 -44.984375 C 40.066406 -44.441406 41.957031 -43.132812 43.125 -41.0625 C 44.289062 -38.988281 44.875 -36.175781 44.875 -32.625 L 44.6875 0 L 27.8125 0 L 27.8125 -33.734375 C 27.8125 -36.140625 27.34375 -37.675781 26.40625 -38.34375 C 25.46875 -39.019531 23.757812 -39.359375 21.28125 -39.359375 L 21.28125 0 L 3.8125 0 Z M 25.5 -54.3125 C 27.914062 -54.3125 29.125 -56.925781 29.125 -62.15625 C 29.125 -64.425781 29.019531 -66.128906 28.8125 -67.265625 C 28.613281 -68.410156 28.242188 -69.195312 27.703125 -69.625 C 27.171875 -70.0625 26.40625 -70.28125 25.40625 -70.28125 L 21.390625 -70.28125 L 21.390625 -54.3125 Z M 25.5 -54.3125 "/></g></g></g><g fill="#fdfdfd" fill-opacity="1"><g transform="translate(177.918459, 173.831913)"><g><path d="M 3.015625 0 L 3.015625 -86.25 L 19.671875 -86.25 L 19.671875 0 Z M 3.015625 0 "/></g></g></g><g fill="#fdfdfd" fill-opacity="1"><g transform="translate(202.014646, 173.831913)"><g><path d="M 11.75 0 L 1.109375 -86.34375 L 17.578125 -86.34375 L 23.890625 -27.609375 L 29.515625 -86.34375 L 45.984375 -86.34375 L 35.34375 0 Z M 11.75 0 "/></g></g></g><g fill="#fdfdfd" fill-opacity="1"><g transform="translate(250.407517, 173.831913)"><g><path d="M 3.8125 0 L 3.8125 -86.25 L 38.359375 -86.25 L 38.359375 -69.578125 L 21.390625 -69.578125 L 21.390625 -52.8125 L 37.65625 -52.8125 L 37.65625 -36.546875 L 21.390625 -36.546875 L 21.390625 -16.765625 L 39.453125 -16.765625 L 39.453125 0 Z M 3.8125 0 "/></g></g></g><g fill="#fdfdfd" fill-opacity="1"><g transform="translate(77.919945, 280.145386)"><g><path d="M 24.296875 0.796875 C 17.367188 0.796875 12.101562 -1.316406 8.5 -5.546875 C 4.894531 -9.785156 3.09375 -15.738281 3.09375 -23.40625 L 3.09375 -64.296875 C 3.09375 -71.703125 4.894531 -77.285156 8.5 -81.046875 C 12.101562 -84.816406 17.367188 -86.703125 24.296875 -86.703125 C 31.234375 -86.703125 36.5 -84.816406 40.09375 -81.046875 C 43.695312 -77.285156 45.5 -71.703125 45.5 -64.296875 L 45.5 -23.40625 C 45.5 -15.664062 43.695312 -9.695312 40.09375 -5.5 C 36.5 -1.300781 31.234375 0.796875 24.296875 0.796875 Z M 24.296875 -15 C 25.828125 -15 26.859375 -15.664062 27.390625 -17 C 27.929688 -18.332031 28.203125 -20.195312 28.203125 -22.59375 L 28.203125 -64.59375 C 28.203125 -66.46875 27.953125 -67.988281 27.453125 -69.15625 C 26.953125 -70.320312 25.9375 -70.90625 24.40625 -70.90625 C 21.53125 -70.90625 20.09375 -68.738281 20.09375 -64.40625 L 20.09375 -22.5 C 20.09375 -20.03125 20.394531 -18.160156 21 -16.890625 C 21.601562 -15.628906 22.703125 -15 24.296875 -15 Z M 24.296875 -15 "/></g></g></g><g fill="#fdfdfd" fill-opacity="1"><g transform="translate(127.818064, 280.145386)"><g><path d="M 3.796875 0 L 3.796875 -85.90625 L 38.203125 -85.90625 L 38.203125 -69.203125 L 21.09375 -69.203125 L 21.09375 -55.5 L 37.296875 -55.5 L 37.296875 -39 L 21.09375 -39 L 21.09375 0 Z M 3.796875 0 "/></g></g></g><g fill="#fdfdfd" fill-opacity="1"><g transform="translate(169.016523, 280.145386)"><g><path d="M 3.796875 0 L 3.796875 -85.90625 L 38.203125 -85.90625 L 38.203125 -69.203125 L 21.09375 -69.203125 L 21.09375 -55.5 L 37.296875 -55.5 L 37.296875 -39 L 21.09375 -39 L 21.09375 0 Z M 3.796875 0 "/></g></g></g></svg>