<svg xmlns="http://www.w3.org/2000/svg" xmlns:xlink="http://www.w3.org/1999/xlink" width="500" zoomAndPan="magnify" viewBox="0 0 375 374.999991" height="500" preserveAspectRatio="xMidYMid meet" version="1.0"><defs><g/></defs><g fill="#3d3d3d" fill-opacity="1"><g transform="translate(144.128695, 195.749987)"><g><path d="M 0.875 -19.75 L 6.328125 -19.75 C 7.734375 -19.75 8.789062 -19.359375 9.5 -18.578125 C 10.207031 -17.796875 10.566406 -16.640625 10.578125 -15.109375 L 10.625 -5.859375 C 10.644531 -3.910156 10.304688 -2.445312 9.609375 -1.46875 C 8.921875 -0.488281 7.78125 0 6.1875 0 L 0.875 0 Z M 5.546875 -3.5 C 6.265625 -3.5 6.625 -3.847656 6.625 -4.546875 L 6.625 -14.75 C 6.625 -15.1875 6.585938 -15.515625 6.515625 -15.734375 C 6.453125 -15.960938 6.328125 -16.113281 6.140625 -16.1875 C 5.953125 -16.269531 5.671875 -16.3125 5.296875 -16.3125 L 4.859375 -16.3125 L 4.859375 -3.5 Z M 5.546875 -3.5 "/></g></g></g><g fill="#3d3d3d" fill-opacity="1"><g transform="translate(155.463873, 195.749987)"><g><path d="M 0.875 -19.75 L 6.953125 -19.75 C 7.910156 -19.75 8.65625 -19.53125 9.1875 -19.09375 C 9.71875 -18.664062 10.070312 -18.054688 10.25 -17.265625 C 10.4375 -16.472656 10.53125 -15.460938 10.53125 -14.234375 C 10.53125 -13.117188 10.382812 -12.242188 10.09375 -11.609375 C 9.800781 -10.984375 9.296875 -10.546875 8.578125 -10.296875 C 9.171875 -10.179688 9.601562 -9.882812 9.875 -9.40625 C 10.144531 -8.925781 10.28125 -8.28125 10.28125 -7.46875 L 10.234375 0 L 6.375 0 L 6.375 -7.734375 C 6.375 -8.285156 6.265625 -8.632812 6.046875 -8.78125 C 5.835938 -8.9375 5.445312 -9.015625 4.875 -9.015625 L 4.875 0 L 0.875 0 Z M 5.84375 -12.4375 C 6.394531 -12.4375 6.671875 -13.035156 6.671875 -14.234375 C 6.671875 -14.753906 6.644531 -15.144531 6.59375 -15.40625 C 6.550781 -15.664062 6.46875 -15.84375 6.34375 -15.9375 C 6.21875 -16.039062 6.039062 -16.09375 5.8125 -16.09375 L 4.90625 -16.09375 L 4.90625 -12.4375 Z M 5.84375 -12.4375 "/></g></g></g><g fill="#3d3d3d" fill-opacity="1"><g transform="translate(166.43118, 195.749987)"><g><path d="M 0.6875 0 L 0.6875 -19.75 L 4.515625 -19.75 L 4.515625 0 Z M 0.6875 0 "/></g></g></g><g fill="#3d3d3d" fill-opacity="1"><g transform="translate(171.650418, 195.749987)"><g><path d="M 2.6875 0 L 0.25 -19.78125 L 4.03125 -19.78125 L 5.46875 -6.328125 L 6.765625 -19.78125 L 10.53125 -19.78125 L 8.09375 0 Z M 2.6875 0 "/></g></g></g><g fill="#3d3d3d" fill-opacity="1"><g transform="translate(182.433784, 195.749987)"><g><path d="M 0.875 0 L 0.875 -19.75 L 8.78125 -19.75 L 8.78125 -15.9375 L 4.90625 -15.9375 L 4.90625 -12.09375 L 8.625 -12.09375 L 8.625 -8.375 L 4.90625 -8.375 L 4.90625 -3.84375 L 9.03125 -3.84375 L 9.03125 0 Z M 0.875 0 "/></g></g></g><g fill="#3d3d3d" fill-opacity="1"><g transform="translate(191.906596, 195.749987)"><g/></g></g><g fill="#3d3d3d" fill-opacity="1"><g transform="translate(197.286784, 195.749987)"><g><path d="M 5.59375 0.1875 C 4 0.1875 2.785156 -0.296875 1.953125 -1.265625 C 1.128906 -2.242188 0.71875 -3.613281 0.71875 -5.375 L 0.71875 -14.78125 C 0.71875 -16.488281 1.128906 -17.773438 1.953125 -18.640625 C 2.785156 -19.503906 4 -19.9375 5.59375 -19.9375 C 7.1875 -19.9375 8.394531 -19.503906 9.21875 -18.640625 C 10.050781 -17.773438 10.46875 -16.488281 10.46875 -14.78125 L 10.46875 -5.375 C 10.46875 -3.601562 10.050781 -2.234375 9.21875 -1.265625 C 8.394531 -0.296875 7.1875 0.1875 5.59375 0.1875 Z M 5.59375 -3.453125 C 5.945312 -3.453125 6.179688 -3.601562 6.296875 -3.90625 C 6.421875 -4.21875 6.484375 -4.648438 6.484375 -5.203125 L 6.484375 -14.859375 C 6.484375 -15.285156 6.425781 -15.632812 6.3125 -15.90625 C 6.195312 -16.175781 5.960938 -16.3125 5.609375 -16.3125 C 4.953125 -16.3125 4.625 -15.8125 4.625 -14.8125 L 4.625 -5.171875 C 4.625 -4.609375 4.691406 -4.179688 4.828125 -3.890625 C 4.960938 -3.597656 5.21875 -3.453125 5.59375 -3.453125 Z M 5.59375 -3.453125 "/></g></g></g><g fill="#3d3d3d" fill-opacity="1"><g transform="translate(208.461024, 195.749987)"><g><path d="M 0.875 0 L 0.875 -19.75 L 8.78125 -19.75 L 8.78125 -15.921875 L 4.859375 -15.921875 L 4.859375 -12.765625 L 8.578125 -12.765625 L 8.578125 -8.96875 L 4.859375 -8.96875 L 4.859375 0 Z M 0.875 0 "/></g></g></g><g fill="#3d3d3d" fill-opacity="1"><g transform="translate(217.634927, 195.749987)"><g><path d="M 0.875 0 L 0.875 -19.75 L 8.78125 -19.75 L 8.78125 -15.921875 L 4.859375 -15.921875 L 4.859375 -12.765625 L 8.578125 -12.765625 L 8.578125 -8.96875 L 4.859375 -8.96875 L 4.859375 0 Z M 0.875 0 "/></g></g></g></svg>